<svg id="Main" xmlns="http://www.w3.org/2000/svg" xmlns:xlink="http://www.w3.org/1999/xlink" viewBox="0 0 1734.09 914.28"><defs><style>.cls-1{fill:#ffd053;}.cls-2{fill:#ff8004;}.cls-3{fill:#ff7e02;}.cls-4{fill:#fff;}.cls-5{fill:url(#linear-gradient);}</style><linearGradient id="linear-gradient" x1="1780.64" y1="158.98" x2="1780.17" y2="102.81" gradientUnits="userSpaceOnUse"><stop offset="0" stop-color="#ff9810"/><stop offset="0.4" stop-color="#ffb12f"/><stop offset="0.76" stop-color="#ffc243"/><stop offset="1" stop-color="#ffc84a"/></linearGradient></defs><title>back</title><g id="NEXT"><circle class="cls-1" cx="1641.17" cy="823.65" r="85.78"/><circle class="cls-2" cx="1642.09" cy="825.49" r="72.86"/><circle class="cls-1" cx="1637.48" cy="819.04" r="72.86"/></g><g id="LEADER"><rect id="menu_bar" data-name="menu bar" class="cls-1" y="122.49" width="372.96" height="463.79" rx="62.72"/></g><g id="bara_intrebare" data-name="bara intrebare"><rect class="cls-1" x="420" y="737.87" width="1097.58" height="171.55" rx="85.78"/><rect class="cls-2" x="433.69" y="756.32" width="1068.67" height="138.35" rx="69.18"/><rect class="cls-1" x="429.13" y="748.94" width="1068.67" height="138.35" rx="69.18"/></g><g id="ramă"><path class="cls-1" d="M1825.71,246.88V745.19c0,19.23-16.83,34.81-37.6,34.81H553.6c-20.76,0-37.6-15.58-37.6-34.81V246.88c0-19.22,16.84-34.8,37.6-34.8H1788.11C1808.88,212.08,1825.71,227.66,1825.71,246.88Z" transform="translate(-96 -85.72)"/></g><g id="logo"><rect class="cls-1" y="5.98" width="373" height="87.27" rx="42.74"/><rect class="cls-3" x="5.5" y="9.36" width="362.14" height="78.52" rx="38.45"/><rect class="cls-1" x="0.47" y="7" width="364.84" height="78.52" rx="38.45"/><text x="-96" y="-85.72"/><path class="cls-4" d="M253.2,151.91l-9.16-12a21.72,21.72,0,1,0-7.86,5.8l9.26,12.12a4.33,4.33,0,0,0,6,.81l.91-.71A4.31,4.31,0,0,0,253.2,151.91Zm-25.67-14a12.14,12.14,0,1,1,12.14-12.14A12.14,12.14,0,0,1,227.53,137.89Z" transform="translate(-96 -85.72)"/></g><g id="LOG_OUT" data-name="LOG OUT"><circle class="cls-1" cx="1685.9" cy="48.19" r="48.19"/><circle class="cls-2" cx="1686.42" cy="49.23" r="40.94"/><circle class="cls-1" cx="1683.83" cy="45.6" r="40.94"/><g id="log_out-2" data-name="log out"><path class="cls-5" d="M1799.16,151.81a28.09,28.09,0,1,1,2.16-39.67A28.09,28.09,0,0,1,1799.16,151.81Z" transform="translate(-96 -85.72)"/><image width="2000" height="2000" transform="translate(1662.38 23.06) scale(0.02)" xlink:href="../ttufutf.png"/></g></g><g id="SCOR"><circle class="cls-1" cx="186.17" cy="763.78" r="150.5"/><circle class="cls-2" cx="187.79" cy="767.02" r="127.84"/><circle class="cls-1" cx="179.7" cy="755.69" r="127.84"/></g></svg>