<svg id="Layer_1" data-name="Layer 1" xmlns="http://www.w3.org/2000/svg" xmlns:xlink="http://www.w3.org/1999/xlink" viewBox="0 0 1923.7 1080.96"><defs><style>.cls-1{fill:url(#linear-gradient);}.cls-2{opacity:0.1;}.cls-3{fill:#ba81fb;}</style><linearGradient id="linear-gradient" x1="960.23" y1="1092.06" x2="959.78" y2="4.37" gradientUnits="userSpaceOnUse"><stop offset="0" stop-color="#7e52f0"/><stop offset="1" stop-color="#b980fb"/></linearGradient></defs><title>background</title><rect class="cls-1" y="0.96" width="1920" height="1080"/><g id="pattern"><g class="cls-2"><path class="cls-3" d="M1922,307.48l1.7-2L1922,305V155.4l1.57-.34L1922,152.5V0H1680.34l-3.08-1-1.1,1H1085.93l0,0,0,0H0V1080H1922V439.16l.06-.12H1922Z" transform="translate(0 0.96)"/></g><path class="cls-3" d="M1030.38,547.29l-5.3.64-2.7.32a.34.34,0,0,1,0-.08l-1.62-4.74c-2.81-8.21-9-26.34-17.37-50.55-.35-1.05-.72-2.11-1.09-3.19-3.1-9-6.48-18.79-10.06-29.17l-1.67-4.84c-7.06-20.41-14.86-42.94-23-66.26-.36-1.05-.73-2.1-1.1-3.16-3.21-9.23-6.47-18.58-9.75-27.95l-1.11-3.16c-2.85-8.14-5.7-16.3-8.56-24.42-.36-1.05-.73-2.11-1.1-3.16-6.72-19.1-13.37-37.94-19.73-55.82-.38-1.06-.76-2.12-1.13-3.17-3.46-9.69-6.83-19.09-10.06-28.06-.38-1.06-.76-2.12-1.14-3.16-8.57-23.77-16.19-44.46-22.11-59.86-2.41-6.28-5.34-13.7-8.67-22-.41-1-.83-2.08-1.26-3.14-2.3-5.74-4.79-11.86-7.41-18.29-.42-1.05-.86-2.11-1.29-3.18C857.31,92.09,836.71,42.91,818.61,0H827c5.62,13.32,11.48,27.24,17.35,41.25l2.07,4.94c9.48,22.63,18.95,45.36,27.48,66.09.44,1.07.88,2.13,1.31,3.19q3.16,7.69,6.13,15l1.31,3.18c2.54,6.24,4.94,12.19,7.18,17.77l1.27,3.14c3.3,8.26,6.21,15.64,8.61,21.89,5.9,15.37,13.5,36,22,59.67l1.14,3.16c3.23,9,6.59,18.33,10,28,.37,1.05.75,2.11,1.12,3.17,6.42,18,13.13,37,19.9,56.27l1.11,3.16q4.23,12,8.47,24.16l1.11,3.16c12.09,34.6,24,68.81,34.21,98.47.56,1.63,1.11,3.24,1.67,4.83,13.8,40,24.42,71,28.27,82.23Z" transform="translate(0 0.96)"/><path class="cls-3" d="M806.31,568l-1.11-.29c-1.42-.38-143.09-37.38-191.16-47.84-56.13-12.22-229.3-42.7-231-43l2.32-4.65c1.75.31,175.16,30.84,231.53,43.11,46,10,177.09,44.16,190.54,47.67,27.32-2.62,502.35-48,664.2-52.66,99.35-2.85,393.67,8.18,411.48,8.85l34.65-7.11,2.67,4.58-36.2,7.43-.82,0c-3.09-.12-309.89-11.79-411.39-8.88-165.37,4.74-659.5,52.23-664.48,52.71Z" transform="translate(0 0.96)"/><path class="cls-3" d="M1686,0l-17.31,15.09-3.55,3.09c-8.59,7.48-17.22,15-25.77,22.43l-3.36,2.94c-14.32,12.45-28.36,24.64-41.51,36.05h0l-3.37,2.93c-12.32,10.68-23.79,20.6-33.91,29.34-1.21,1-2.39,2-3.56,3.07h0c-6.62,5.7-12.59,10.82-17.76,15.24l-15.4,13.12-1.08.92-2.27,1.93-2.58,2.19c-12.52,10.63-26.14,22.15-40.57,34.34l-3.13,2.64c-11.42,9.64-23.33,19.68-35.6,30l-3.21,2.71-40.72,34.25-3.19,2.69-8.68,7.3-43.89,36.93-3.18,2.67L1302,327.54l-3.32,2.8c-46.74,39.41-92.55,78.16-130.48,110.68l-3.15,2.7c-13.61,11.67-26.15,22.5-37.29,32.22-20.49,17.87-45.4,40-72.65,64.46h0l-6,5.41C1003.93,586.47,953,633.25,905.3,678.17l-2.9,2.73q-16.08,15.18-31.5,30L868,713.6q-12.18,11.68-23.74,22.94l-2.83,2.75c-8.27,8.07-16.26,15.92-23.88,23.52-.94.92-1.87,1.85-2.79,2.77-11.1,11.07-21.4,21.54-30.7,31.22-68.1,70.92-185.94,218-237.52,283.2h-9C588.3,1015.85,708,866.21,777,794.41c63.15-65.77,172.74-167.82,261.23-247.64l6-5.41c28.84-26,55.23-49.39,76.73-68.14q7.32-6.37,15.4-13.37L1142,455c46.58-40.19,109.33-93.22,171.82-145.85l3.19-2.68c14.06-11.84,28.09-23.65,41.91-35.27l4.78-4,9.1-7.65c26.22-22.06,51.81-43.58,75.65-63.67l3.12-2.64c12.71-10.72,24.91-21,36.41-30.75l3.12-2.64q11.07-9.37,21.2-18l3.35-2.85q7-6,13.54-11.54c17.4-14.86,43.87-37.76,73.42-63.42l3.14-2.73c11.57-10.05,23.57-20.48,35.65-31l3.15-2.74L1676.16,0l1.1-1,3.08,1Z" transform="translate(0 0.96)"/><polygon class="cls-3" points="1367.15 270.2 1361.29 273.57 1358.94 272.13 1307.92 240.93 1304.01 238.54 1278.84 223.15 1275.02 220.81 1230.66 193.68 1224.96 190.19 1108.86 119.19 1103.17 115.71 1062.26 90.69 1058.47 88.37 1034.57 73.76 1030.55 71.3 937.12 14.16 931.29 10.59 915.54 0.96 926.92 0.96 938.43 8 944.25 11.56 1000.92 46.22 1004.72 48.54 1064.4 85.05 1068.2 87.37 1230.53 186.65 1236.22 190.13 1363.72 268.1 1367.15 270.2"/><path class="cls-3" d="M1921.76,862.8l-1.76.93c-16.14,8.53-138.76,73.49-231.59,126.45h0q-3.33,1.89-6.6,3.78h0c-33.19,19-62,36.23-79.93,48.37-12.5,8.47-30.16,22.11-49.44,37.66H1542.3c20.8-16.85,40-31.78,53.42-40.85,56.22-38.08,218.82-125.73,288.41-162.86l4.74-2.52c16.7-8.91,27-14.33,27.47-14.59l3.66,2.44Z" transform="translate(0 0.96)"/><polygon class="cls-3" points="973.4 0.96 944.25 11.56 937.12 14.16 846.44 47.15 843.9 48.07 839.63 43.94 844.37 42.21 931.29 10.59 938.43 8 957.78 0.96 973.4 0.96"/><polygon class="cls-3" points="1491.45 514.32 1483.86 512.54 1616.75 312.42 1568.27 187.77 1511.17 146.85 1517.46 143.76 1575.79 185.57 1576 186.12 1625.27 312.79 1624.81 313.49 1491.45 514.32"/><polygon class="cls-3" points="1537.3 159.26 1532.77 161.05 1517.17 147.11 1514.86 145.04 1512.32 142.77 1486.08 119.32 1481.32 115.06 1406.79 48.44 1403.75 45.72 1392.58 35.74 1340.55 19.76 1332.95 17.43 1279.31 0.96 1291.14 0.96 1396.33 33.26 1396.72 33.6 1413.21 48.34 1416.25 51.06 1515.67 139.92 1520.52 144.26 1530.08 152.8 1530.11 152.83 1537.3 159.26"/><polygon class="cls-3" points="1088.28 2.16 1084.36 4.33 1004.72 48.54 1001.69 50.22 997.97 47.86 1000.92 46.22 1080.13 2.26 1077.58 0.96 1085.86 0.96 1085.89 0.94 1085.93 0.96 1088.28 2.16"/><polygon class="cls-3" points="1209.15 151.55 1205.56 149.13 1405.53 44.79 1409.12 47.22 1209.15 151.55"/><polygon class="cls-3" points="1238.14 80.61 1232.36 77.19 1335.88 15.69 1341.65 19.11 1238.14 80.61"/><polygon class="cls-3" points="1293.05 105.33 1289.49 107.78 1287.13 106.57 1154.87 38.83 1150.74 36.71 1121.31 21.64 1121.3 21.64 1118.95 20.43 1122.82 18.23 1153.19 0.96 1161.06 0.96 1127.03 20.31 1154.71 34.49 1158.85 36.6 1235.02 75.61 1241.21 78.78 1241.22 78.78 1291.26 104.41 1293.05 105.33"/><polygon class="cls-3" points="1124.67 19.1 1121.31 21.64 1121.3 21.64 1084.36 4.33 1082.52 3.47 1085.86 0.96 1085.89 0.94 1085.93 0.96 1122.82 18.23 1124.67 19.1"/><polygon class="cls-3" points="1342.51 80.12 1283.74 50.26 1287.28 47.81 1346.05 77.67 1342.51 80.12"/><polygon class="cls-3" points="1376.93 62.34 1311.27 34.09 1314.47 31.48 1380.13 59.72 1376.93 62.34"/><polygon class="cls-3" points="871.91 117.32 869.67 114.38 1035.39 70 1037.63 72.94 871.91 117.32"/><polygon class="cls-3" points="1076.57 343.52 942.71 96.39 947.89 95.4 1080.28 339.81 1148.33 332.01 1149.36 335.18 1076.57 343.52"/><polygon class="cls-3" points="820.59 163.83 819.53 160.67 971 142.75 972.07 145.92 820.59 163.83"/><polygon class="cls-3" points="928.87 174.11 927.61 170.97 982.01 163.27 983.28 166.41 928.87 174.11"/><polygon class="cls-3" points="951.13 206.41 949.9 203.26 999.97 196.39 1001.2 199.53 951.13 206.41"/><polygon class="cls-3" points="880.47 247.06 879.05 243.94 1013.84 222.2 1015.27 225.31 880.47 247.06"/><polygon class="cls-3" points="894.96 277.93 893.48 274.82 1029.96 252 1031.44 255.11 894.96 277.93"/><polygon class="cls-3" points="992.6 180.05 987.2 176.41 1106.38 114.03 1111.78 117.66 992.6 180.05"/><polygon class="cls-3" points="1023.76 238.88 1020.37 236.36 1165.74 167.43 1169.14 169.95 1023.76 238.88"/><polygon class="cls-3" points="1046.66 281.74 1042.93 277.43 1146.24 245.96 1227.6 188.32 1352.39 116.98 1358.05 120.47 1233.43 191.72 1151.44 249.82 1046.66 281.74"/><polygon class="cls-3" points="1145.78 249.49 1084.22 208.08 1023.13 160.6 1029.62 157.66 1090.63 205.07 1151.9 246.28 1145.78 249.49"/><polygon class="cls-3" points="895.84 337.07 877.96 327.67 881.57 325.25 897.48 333.62 950.04 328.1 1063.84 315.34 1151.72 275.1 1278.62 219.23 1281.86 221.82 1155 277.67 1066.13 318.37 1065.49 318.44 951.02 331.27 895.84 337.07"/><polygon class="cls-3" points="916.81 396.72 894 335.69 899.31 334.99 920.96 392.9 970.45 386.72 971.57 389.88 916.81 396.72"/><polygon class="cls-3" points="908.45 366.64 907.09 363.51 959.44 355.52 1077.84 340.09 1079.01 343.24 960.7 358.66 908.45 366.64"/><polygon class="cls-3" points="1179.76 310.51 1150.96 277.11 1127.91 254.39 1132.57 252.72 1155.71 275.55 1184.6 309.04 1179.76 310.51"/><polygon class="cls-3" points="1219.28 247.72 1179.84 225.78 1183.56 223.43 1223 245.37 1219.28 247.72"/><polygon class="cls-3" points="1358.44 216.28 1352 213.3 1482.25 114.36 1488.68 117.34 1358.44 216.28"/><polygon class="cls-3" points="1317.79 178.56 1312.01 175.14 1444.4 96.46 1450.18 99.88 1317.79 178.56"/><polygon class="cls-3" points="1279.69 161.75 1238.68 133.99 1244.82 130.8 1285.83 158.56 1279.69 161.75"/><polygon class="cls-3" points="1315.59 141.34 1274.71 115.25 1278.7 113.06 1319.57 139.15 1315.59 141.34"/><polygon class="cls-3" points="1379.08 138.59 1312.88 95.31 1316.91 93.14 1383.11 136.43 1379.08 138.59"/><polygon class="cls-3" points="1451.71 198.19 1405.71 178.15 1350.95 155.84 1354.03 153.18 1408.87 175.52 1454.93 195.59 1451.71 198.19"/><polygon class="cls-3" points="1491.16 164.82 1447.23 144.93 1402.74 124.96 1406.02 122.39 1450.52 142.35 1494.46 162.25 1491.16 164.82"/><polygon class="cls-3" points="693.16 537.01 685.31 535.69 716.95 469.45 807.27 457.51 1144.14 455.92 1144.2 460.77 807.77 462.35 723.48 473.55 693.16 537.01"/><polygon class="cls-3" points="897.72 497.33 897.41 494.11 1006.79 490.5 1007.09 493.72 897.72 497.33"/><polygon class="cls-3" points="674.37 612.63 669.91 610.77 742.43 549.49 746.89 551.34 674.37 612.63"/><polygon class="cls-3" points="786.79 598.67 709.88 580.45 711.9 577.45 788.81 595.67 786.79 598.67"/><polygon class="cls-3" points="759.4 238.47 727.7 208.12 727.7 132.4 733.14 132.4 733.14 207.2 764.03 236.77 759.4 238.47"/><polygon class="cls-3" points="730.98 195.92 729.86 192.76 870.23 175.27 871.35 178.43 730.98 195.92"/><polygon class="cls-3" points="744.41 222.11 743.32 218.95 882.27 201.93 883.37 205.09 744.41 222.11"/><polygon class="cls-3" points="1230.07 314.67 1225.46 312.96 1305.88 236.76 1310.5 238.48 1230.07 314.67"/><polygon class="cls-3" points="1318.04 311.24 1250.58 292.58 1252.88 289.65 1320.35 308.31 1318.04 311.24"/><polygon class="cls-3" points="1486.61 363.32 1296.39 330.92 1297.89 327.81 1484.32 359.57 1596.59 261.05 1428.77 218.15 1430.93 215.18 1604.78 259.63 1486.61 363.32"/><polygon class="cls-3" points="1432.79 331.42 1329.1 301.9 1331.46 298.99 1430.96 327.31 1483.58 282.32 1384.86 255.02 1387.16 252.09 1491.73 281.01 1432.79 331.42"/><polygon class="cls-3" points="1517.69 333.65 1448.94 315.29 1451.17 312.34 1519.93 330.71 1517.69 333.65"/><polygon class="cls-3" points="1449.53 355.86 1445.05 354.02 1482.19 322.08 1486.67 323.91 1449.53 355.86"/><polygon class="cls-3" points="1489.74 282.71 1485.58 280.63 1537.94 243.79 1542.1 245.87 1489.74 282.71"/><polygon class="cls-3" points="1411.18 349.35 1406.75 347.48 1429.65 328.43 1434.09 330.3 1411.18 349.35"/><polygon class="cls-3" points="1499.84 235.15 1495.86 232.95 1570.03 185.57 1574.02 187.77 1499.84 235.15"/><polygon class="cls-3" points="1533.5 211.63 1467.55 184.93 1470.62 182.26 1536.57 208.96 1533.5 211.63"/><polygon class="cls-3" points="1534.83 443.13 1354.66 420.74 1355.78 417.58 1535.94 439.97 1534.83 443.13"/><polygon class="cls-3" points="1579.51 513.43 1574.07 513.43 1574.07 493.29 1342.6 449.76 1344.25 446.69 1579.51 490.93 1579.51 513.43"/><polygon class="cls-3" points="1607.28 333.74 1532.24 321.31 1533.7 318.2 1608.74 330.63 1607.28 333.74"/><polygon class="cls-3" points="1575.94 380.74 1484.62 362.98 1486.31 359.91 1577.64 377.67 1575.94 380.74"/><polygon class="cls-3" points="1510.45 0.96 1509.16 1.64 1509.15 1.64 1460.75 27.39 1456.23 29.8 1416.25 51.06 1414.49 51.99 1410.86 49.59 1413.21 48.34 1494.26 5.24 1498.31 3.08 1502.3 0.96 1510.45 0.96"/><polygon class="cls-3" points="1500.13 4.3 1496.05 6.44 1494.26 5.24 1487.88 0.96 1495.15 0.96 1498.31 3.08 1500.13 4.3"/><polygon class="cls-3" points="1647.89 29.23 1645.97 32.25 1641.42 31.23 1509.16 1.64 1509.15 1.64 1507.62 1.3 1507.84 0.96 1521.52 0.96 1644.57 28.49 1647.89 29.23"/><polygon class="cls-3" points="1607.05 66.02 1454.66 29.41 1456.7 26.42 1609.09 63.03 1607.05 66.02"/><polygon class="cls-3" points="1681.41 0.96 1681.18 1.22 1680.34 0.96 1681.41 0.96"/><polygon class="cls-3" points="1763.17 0.96 1740.99 55.18 1636.05 44.51 1632.85 44.18 1633.77 41 1639.41 41.57 1675.82 45.28 1681.21 45.82 1717 49.47 1722.37 50.01 1736.9 51.49 1748.72 22.59 1750.02 19.41 1757.57 0.96 1763.17 0.96"/><polygon class="cls-3" points="1751.93 22.72 1662.05 19.01 1662.43 15.79 1752.31 19.5 1751.93 22.72"/><polygon class="cls-3" points="1721.85 51.63 1716.5 51.02 1726.29 20.81 1731.64 21.42 1721.85 51.63"/><polygon class="cls-3" points="1680.42 47.54 1675.17 46.69 1688.24 18.16 1693.49 19 1680.42 47.54"/><polygon class="cls-3" points="1619.03 728.51 1295.16 525.13 1161.74 442.67 1165.66 440.43 1299.11 522.9 1622.99 726.3 1619.03 728.51"/><polygon class="cls-3" points="1549.58 682.7 1546.11 680.21 1619.28 644.36 1622.74 646.85 1549.58 682.7"/><polygon class="cls-3" points="1446.17 617.84 1442.84 615.29 1505.05 586.74 1508.38 589.29 1446.17 617.84"/><polygon class="cls-3" points="1669.63 719.76 1569.85 640.65 1574.2 638.72 1673.99 717.83 1669.63 719.76"/><polygon class="cls-3" points="1884.7 879.07 1771.14 518.73 1784.88 493.42 1790.07 494.41 1776.74 518.94 1890.05 878.48 1884.7 879.07"/><polygon class="cls-3" points="1775.61 816.41 1772.27 813.86 1917.38 747.12 1920.72 749.67 1775.61 816.41"/><polygon class="cls-3" points="1832.28 860.02 1829.04 857.42 1917.43 818.68 1920.67 821.27 1832.28 860.02"/><polygon class="cls-3" points="1837.88 718.23 1834.84 715.55 1917.53 682.48 1920.57 685.15 1837.88 718.23"/><polygon class="cls-3" points="1828.51 699.79 1690.07 593.85 1694.37 591.87 1832.81 697.81 1828.51 699.79"/><polygon class="cls-3" points="1212.04 792.69 1210.94 792.3 898.93 680.62 901.74 677.86 1212.65 789.14 1383.87 753.12 1384.84 753.36 1495.51 780.81 1493.41 783.79 1383.71 756.58 1212.04 792.69"/><polygon class="cls-3" points="852.92 814.09 795.4 792.27 798.34 789.55 851.49 809.71 975.68 706.07 980.11 707.94 852.92 814.09"/><polygon class="cls-3" points="939.81 739.06 864.56 713.37 867.27 710.57 942.52 736.26 939.81 739.06"/><polygon class="cls-3" points="910.14 763.81 837.97 739.05 840.69 736.26 912.86 761.02 910.14 763.81"/><polygon class="cls-3" points="881.37 787.9 811.29 765.42 813.88 762.58 883.96 785.06 881.37 787.9"/><polygon class="cls-3" points="1678.58 995.18 1677.86 991.98 1773.44 984.41 1918.4 963.45 1919.7 966.58 1774.3 987.6 1678.58 995.18"/><polygon class="cls-3" points="1919.05 1005.65 1848.3 1005.65 1768.22 972.26 1771.35 969.61 1850.02 1002.42 1919.05 1002.42 1919.05 1005.65"/><polygon class="cls-3" points="1882.54 938.59 1879.28 936 1917.42 919.05 1920.68 921.64 1882.54 938.59"/><polygon class="cls-3" points="1595.18 239.01 1592.41 236.23 1706.16 196.38 1588.2 80.59 1592.86 78.92 1713.66 197.51 1595.18 239.01"/><polygon class="cls-3" points="1541.32 164.86 1538.19 162.22 1633.7 122.35 1636.84 124.99 1541.32 164.86"/><polygon class="cls-3" points="1578.66 146.97 1550.98 112.53 1555.89 111.14 1583.57 145.58 1578.66 146.97"/><polygon class="cls-3" points="1917.46 151.65 1873.06 132.64 1620.63 111.27 1621.4 108.08 1875.15 129.56 1920.64 149.03 1917.46 151.65"/><polygon class="cls-3" points="1849.72 149.74 1845.88 147.45 1917.13 105.2 1920.97 107.49 1849.72 149.74"/><polygon class="cls-3" points="1923.57 156.02 1922 156.36 1873.68 166.84 1871.81 163.8 1921.71 152.99 1922 153.46 1923.57 156.02"/><rect class="cls-3" x="1762.07" y="121.85" width="5.44" height="41.69"/><polygon class="cls-3" points="1710.16 198.55 1709.67 195.34 1778.61 191.65 1779.1 194.87 1710.16 198.55"/><polygon class="cls-3" points="1854.3 191.91 1854 188.69 1918.9 186.54 1919.2 189.76 1854.3 191.91"/><polygon class="cls-3" points="1701.43 359.78 1696.62 358.26 1720.31 331.82 1713.51 253.27 1755.53 193.75 1760.55 195 1719.01 253.84 1725.82 332.54 1701.43 359.78"/><polygon class="cls-3" points="1596.63 250.8 1596.07 247.59 1868.84 230.94 1869.4 234.16 1596.63 250.8"/><polygon class="cls-3" points="1917.11 264.38 1820 205.69 1823.89 203.43 1920.99 262.12 1917.11 264.38"/><polygon class="cls-3" points="1717.88 269.4 1717.11 266.2 1900.65 250.76 1901.42 253.96 1717.88 269.4"/><polygon class="cls-3" points="1828.38 321.18 1717.71 286.48 1720.26 283.62 1830.93 318.33 1828.38 321.18"/><polygon class="cls-3" points="1773.73 340.54 1722.47 333.75 1723.66 330.61 1774.91 337.39 1773.73 340.54"/><polygon class="cls-3" points="1909.92 317.09 1760.94 265.43 1763.69 262.64 1912.67 314.3 1909.92 317.09"/><polygon class="cls-3" points="1923.7 306.48 1922 308.44 1897.85 336.31 1893 334.84 1908.74 316.68 1911.23 313.8 1918.86 305 1922 305.96 1923.7 306.48"/><polygon class="cls-3" points="1836.12 289.68 1831.5 287.98 1866.8 254.2 1871.43 255.9 1836.12 289.68"/><polygon class="cls-3" points="1746.85 336.26 1741.92 334.89 1790.03 273.81 1794.96 275.18 1746.85 336.26"/><polygon class="cls-3" points="1804.2 260.36 1799.72 205.99 1805.16 205.83 1809.64 260.2 1804.2 260.36"/><polygon class="cls-3" points="1721.1 312.47 1619.18 309.82 1619.42 306.6 1721.34 309.24 1721.1 312.47"/><polygon class="cls-3" points="1917.92 411.08 1735.6 361.7 1643.17 360.61 1593.52 354.8 1594.57 351.63 1643.98 357.41 1736.84 358.49 1920.18 408.14 1917.92 411.08"/><polygon class="cls-3" points="1701.43 455.56 1544.59 428.08 1546.13 424.98 1702.97 452.46 1701.43 455.56"/><polygon class="cls-3" points="1741.53 451.82 1736.36 450.82 1779.8 372.1 1784.97 373.1 1741.53 451.82"/><polygon class="cls-3" points="1799.1 454.7 1791.27 453.32 1825.74 384.71 1833.57 386.09 1799.1 454.7"/><polygon class="cls-3" points="1853.14 464.4 1847.9 463.54 1878.01 398.78 1883.26 399.64 1853.14 464.4"/><polygon class="cls-3" points="1922.06 440 1922 440.12 1920.49 443.09 1867.46 433.61 1864.79 433.13 1862.3 432.57 1815.47 422.12 1811.46 421.22 1813.38 418.2 1817.03 419.02 1863.75 429.46 1866.54 430.08 1868.91 430.5 1922 439.99 1922.06 440"/><polygon class="cls-3" points="1684.35 450.9 1679.15 449.95 1725.93 359.54 1731.13 360.48 1684.35 450.9"/><polygon class="cls-3" points="1607.9 437.48 1602.67 436.58 1641.08 358.57 1646.3 359.47 1607.9 437.48"/><polygon class="cls-3" points="1920.85 559.61 1874.35 555.17 1875.22 551.98 1921.71 556.42 1920.85 559.61"/><polygon class="cls-3" points="549.46 151.95 548.98 148.73 565.25 147.88 565.72 151.1 549.46 151.95"/><path class="cls-3" d="M632.32,143.43l-33.54,1.75.48,3.21,33.54-1.75Zm67.07-3.5-33.53,1.75.47,3.22,33.54-1.75Zm67.07-3.49-33.32,1.73h-.21l.21,1.44.26,1.78,33.54-1.75Zm67.07-3.5L800,134.69l.47,3.21L834,136.15Zm67.08-3.5-19.25,1-8.22.43-6.07.32.48,3.22,6.88-.36,8.24-.43,18.41-1Zm67.07-3.5-2.65.14-5.56.29-25.33,1.32.48,3.22,26.56-1.39,5.55-.29h0l1.41-.07Zm54.13-18-24.48,13.71,3.73,2.35,24.48-13.71Zm49-27.42-6.37,3.57-5.93,3.32-12.18,6.82,3.74,2.35,12.23-6.85,5.94-3.32,6.31-3.54Zm49-27.41-24.49,13.71,3.74,2.34,24.48-13.71Zm49-27.42-14,7.84-4,2.22-6.52,3.65,3.73,2.34,6.92-3.87,4-2.23,13.59-7.6ZM1220.41,0h-5.84l-21.39,12,3.74,2.35L1221.4.62Z" transform="translate(0 0.96)"/><path class="cls-3" d="M1425.61,808.11l-2.67,2.81,28.46,9.5,2.67-2.81Zm-56.93-19-2.67,2.82,28.47,9.5,2.66-2.82Zm-9.52-28.33-1-3.21-1.55-4.86-5.35.6,1.7,5.36,1,3.21,3.33,10.47,5.35-.6Zm-6.65-41-1.86-3-10.33,2.23,4.87,15.33,5.35-.6-4-12.63Zm179.18,7.61-4,1.57-23.1-5.66-2.08,3,25.78,6.32,6.38-2.53Zm54.3-21.53-1,.38-26.19,10.38,3,2.69,27-10.69.19-.08Zm-141.72,2.64-2.08,3,30.18,7.39,2.08-3Zm-32.24-5-30.69,6.62,1.86,3,30.69-6.63Zm228.25-19.18-4.92,2-4.53,1.8-17.7,7,3,2.68,17.93-7.11h0l4.52-1.8,4.69-1.86Zm52-21.86-4.71,1.63,1.06,1.07-21.15,8.39,3,2.69,25.4-10.08Zm4.93-26.61-3.23-2.6-25.7,11.21,2.84,2.89,4.71-1.62-.39-.39Zm49.39-25.56-17.13,7.47-4.38,1.92-4.8,2.09,3.23,2.6,4.9-2.14,4.39-1.91,17-7.43Zm52.61-23-.5.22-4.87,2.12-20.94,9.14,3.23,2.6,18.82-8.21,4.87-2.13,2.62-1.14Zm32-31.87L1817.56,573l4.94,1.35,13.64-17.6Zm27.29-35.2-2.22,2.86-11.42,14.74,4.94,1.35,12.32-15.88,1.33-1.72Zm27.3-35.21-13.65,17.6,4.94,1.35,13.65-17.6Zm25.3-32.64-11.66,15,5,1.35,11.66-15Z" transform="translate(0 0.96)"/></g></svg>