<svg id="Layer_1" data-name="Layer 1" xmlns="http://www.w3.org/2000/svg" xmlns:xlink="http://www.w3.org/1999/xlink" viewBox="0 0 513.06 689.42"><defs><style>.cls-1{fill:url(#linear-gradient);}.cls-2{fill:url(#linear-gradient-2);}</style><linearGradient id="linear-gradient" x1="248.33" y1="518.56" x2="761.39" y2="518.56" gradientUnits="userSpaceOnUse"><stop offset="0" stop-color="#ffd053"/><stop offset="1" stop-color="#ff8004"/></linearGradient><linearGradient id="linear-gradient-2" x1="337.13" y1="430.38" x2="672.59" y2="430.38" xlink:href="#linear-gradient"/></defs><title>checkpoint</title><path class="cls-1" d="M504.86,173.85c-141.68,0-256.53,114.85-256.53,256.53,0,118.37,179.07,350.76,238,424a23.78,23.78,0,0,0,37.08,0c58.91-73.25,238-305.64,238-424C761.39,288.7,646.53,173.85,504.86,173.85Zm0,463.28c-114.19,0-206.75-92.57-206.75-206.75s92.56-206.75,206.75-206.75S711.6,316.2,711.6,430.38,619,637.13,504.86,637.13Z" transform="translate(-248.33 -173.85)"/><path class="cls-2" d="M672.59,430.38A167.73,167.73,0,1,1,504.86,262.65,167.73,167.73,0,0,1,672.59,430.38Z" transform="translate(-248.33 -173.85)"/></svg>