<svg xmlns="http://www.w3.org/2000/svg" xmlns:xlink="http://www.w3.org/1999/xlink" viewBox="0 0 2176.5 927"><defs><style>.cls-1{isolation:isolate;}.cls-2{fill:url(#linear-gradient);}.cls-3{fill:url(#linear-gradient-2);}.cls-4{fill:#d8d6ec;}.cls-5{fill:url(#linear-gradient-3);}.cls-6{fill:url(#linear-gradient-5);}.cls-7{mix-blend-mode:overlay;}.cls-8{fill:#231f20;}.cls-9{font-size:55.88px;}.cls-14,.cls-9{fill:#fff;font-family:Poppins-BlackItalic, Poppins;font-weight:800;font-style:italic;}.cls-10{fill:url(#linear-gradient-6);}.cls-11{fill:url(#linear-gradient-7);}.cls-12{fill:none;stroke:#fff;stroke-miterlimit:10;stroke-width:5px;}.cls-13{fill:url(#linear-gradient-8);}.cls-14{font-size:55.88px;}</style><linearGradient id="linear-gradient" x1="3608.5" y1="631.5" x2="5784.5" y2="631.5" gradientTransform="matrix(1, 0, 0, -1, -3342, 1263)" gradientUnits="userSpaceOnUse"><stop offset="0" stop-color="#fff"/><stop offset="1" stop-color="#ff8004"/></linearGradient><linearGradient id="linear-gradient-2" y1="327" x2="2176" y2="327" gradientUnits="userSpaceOnUse"><stop offset="0" stop-color="#fff"/><stop offset="1" stop-color="#fff"/></linearGradient><linearGradient id="linear-gradient-3" x1="211.16" y1="326.81" x2="407.25" y2="326.81" gradientUnits="userSpaceOnUse"><stop offset="0" stop-color="#6942e3"/><stop offset="0.99" stop-color="#0162e8"/></linearGradient><linearGradient id="linear-gradient-5" x1="390.06" y1="595.85" x2="760.23" y2="595.85" xlink:href="#linear-gradient-3"/><linearGradient id="linear-gradient-6" x1="5773.36" y1="1274.9" x2="6291.64" y2="969.1" gradientTransform="matrix(1, 0, 0, -1, -5122, 2244)" gradientUnits="userSpaceOnUse"><stop offset="0" stop-color="#ffd053"/><stop offset="1" stop-color="#ff8004"/></linearGradient><linearGradient id="linear-gradient-7" x1="4885.36" y1="1274.9" x2="5403.64" y2="969.1" gradientTransform="matrix(1, 0, 0, -1, -3346, 2244)" xlink:href="#linear-gradient-6"/><linearGradient id="linear-gradient-8" x1="825" y1="737.56" x2="1842" y2="737.56" gradientUnits="userSpaceOnUse"><stop offset="0" stop-color="#6444e3"/><stop offset="1" stop-color="#0661e8"/></linearGradient></defs><title>POP-UP_75</title><g class="cls-1"><g id="Layer_1" ><g id="pop-up_2" ><rect class="cls-2" x="266.5" y="304.5" width="2176" height="654" rx="327" transform="translate(2443 994) rotate(-180)"/><rect class="cls-3" width="2176" height="654" rx="327"/><path class="cls-4" d="M577.72,410.85a24.4,24.4,0,0,1,16.06,40,24.6,24.6,0,0,1-13.64,8.1C651.85,461.6,709.49,519.25,712,590.86a24.44,24.44,0,0,1,48.15,1.81C758.52,492.71,677.64,412.11,577.72,410.85Z" transform="translate(-266 -269)"/><circle class="cls-5" cx="309.21" cy="326.81" r="98.04"/><circle class="cls-5" cx="309.21" cy="326.81" r="98.04"/><path class="cls-6" d="M760.23,595.81c0,1.07,0,2.15-.09,3.13A185.05,185.05,0,1,1,572.68,410.86a35,35,0,0,1,5,0A24.39,24.39,0,0,1,580.12,459h-.18c-1.52-.09-3.13-.09-4.75-.09s-3.14,0-4.75.09h-.18A136.89,136.89,0,1,0,712,600.74v-.18c.09-1.62.09-3.14.09-4.75s0-3.14-.09-4.75v-.18a24.43,24.43,0,0,1,48.14,1.79C760.23,593.66,760.23,594.73,760.23,595.81Z" transform="translate(-266 -269)"/><g class="cls-7"><path class="cls-8" d="M720.15,577.22A24.51,24.51,0,0,0,712,590.86C709.49,519.25,651.85,461.6,580.14,459a24.6,24.6,0,0,0,13.64-8.1A146.25,146.25,0,0,1,720.15,577.22Z" transform="translate(-266 -269)"/></g><text class="cls-9" transform="translate(252.64 348.68)">75%</text><rect class="cls-10" x="573" y="1048" width="675" height="148" rx="74" transform="translate(1555 1975) rotate(-180)"/><rect class="cls-11" x="1461" y="1048" width="675" height="148" rx="74" transform="translate(3331 1975) rotate(-180)"/><path class="cls-12" d="M648.24,1170.49a48.5,48.5,0,0,1,0-97" transform="translate(-266 -269)"/><path class="cls-12" d="M1537.24,1170.49a48.5,48.5,0,0,1,0-97" transform="translate(-266 -269)"/><path class="cls-4" d="M868.12,780.68H2093.25a43.13,43.13,0,0,0,43.12-43.12h0a43.12,43.12,0,0,0-43.12-43.12H868.12A43.12,43.12,0,0,0,825,737.56h0A43.13,43.13,0,0,0,868.12,780.68Z" transform="translate(-266 -269)"/><path class="cls-13" d="M858.44,780.68h950.12c18.47,0,33.44-19.31,33.44-43.12h0c0-23.82-15-43.12-33.44-43.12H858.44c-18.47,0-33.44,19.3-33.44,43.12h0C825,761.37,840,780.68,858.44,780.68Z" transform="translate(-266 -269)"/><text class="cls-9" transform="translate(1412.64 491.68)">75%</text><text class="cls-14" transform="translate(479.68 872.89)">PLAY AGAIN</text><text class="cls-14" transform="translate(1431.68 872.89)">CANCEL</text></g></g></g></svg>
