<svg id="Layer_1" data-name="Layer 1" xmlns="http://www.w3.org/2000/svg" viewBox="0 0 1048 840"><defs><style>.cls-1{fill:#ffd053;}.cls-2,.cls-3{fill:#ff7e02;}.cls-3{opacity:0.44;isolation:isolate;}</style></defs><title>REGISTER</title><rect class="cls-1" width="1048" height="840" rx="120.3"/><rect class="cls-2" x="25" y="25.9" width="1001" height="787.98" rx="120.3"/><rect class="cls-1" x="16" y="15.97" width="1001" height="787.98" rx="120.3"/><path class="cls-3" d="M182.73,436.72H861.27A43.73,43.73,0,0,1,905,480.45h0a43.73,43.73,0,0,1-43.73,43.73H182.73A43.73,43.73,0,0,1,139,480.44h0A43.73,43.73,0,0,1,182.73,436.72Z" transform="translate(0 -164.86)"/><path class="cls-3" d="M182.73,319.72H861.27A43.73,43.73,0,0,1,905,363.45h0a43.73,43.73,0,0,1-43.73,43.73H182.73A43.73,43.73,0,0,1,139,363.44h0A43.73,43.73,0,0,1,182.73,319.72Z" transform="translate(0 -164.86)"/><rect class="cls-3" x="139" y="388.69" width="766" height="87.45" rx="43.72"/><path class="cls-2" d="M433.93,716.86H631.54a41.93,41.93,0,0,1,41.93,41.93h0a41.93,41.93,0,0,1-41.93,41.93H433.93A41.93,41.93,0,0,1,392,758.79h0A41.93,41.93,0,0,1,433.93,716.86Z" transform="translate(0 -164.86)"/><path class="cls-2" d="M282.46,827.86H762.07A41.93,41.93,0,0,1,804,869.79h0a41.93,41.93,0,0,1-41.93,41.93H282.46a41.93,41.93,0,0,1-41.93-41.93h0A41.93,41.93,0,0,1,282.46,827.86Z" transform="translate(0 -164.86)"/></svg>