<svg xmlns="http://www.w3.org/2000/svg" xmlns:xlink="http://www.w3.org/1999/xlink" viewBox="0 0 2176.5 927"><defs><style>.cls-1{isolation:isolate;}.cls-2{fill:url(#linear-gradient);}.cls-3{fill:url(#linear-gradient-2);}.cls-4{fill:#d8d6ec;}.cls-5{fill:url(#linear-gradient-3);}.cls-6{fill:url(#linear-gradient-4);}.cls-7{fill:#5d5d5d;}.cls-8{mix-blend-mode:overlay;}.cls-9{fill:#231f20;}.cls-10{font-size:55.88px;}.cls-10,.cls-15{fill:#fff;font-family:Poppins-BlackItalic, Poppins;font-weight:800;font-style:italic;}.cls-11{fill:url(#linear-gradient-5);}.cls-12{fill:url(#linear-gradient-6);}.cls-13{fill:none;stroke:#fff;stroke-miterlimit:10;stroke-width:5px;}.cls-14{fill:url(#linear-gradient-7);}.cls-15{font-size:55.88px;}</style><linearGradient id="linear-gradient" x1="3608.5" y1="636.5" x2="5784.5" y2="636.5" gradientTransform="matrix(1, 0, 0, -1, -3342, 1273)" gradientUnits="userSpaceOnUse"><stop offset="0" stop-color="#fff"/><stop offset="1" stop-color="#ff8004"/></linearGradient><linearGradient id="linear-gradient-2" y1="327" x2="2176" y2="327" gradientUnits="userSpaceOnUse"><stop offset="0" stop-color="#fff"/><stop offset="1" stop-color="#fff"/></linearGradient><linearGradient id="linear-gradient-3" x1="210.89" y1="327.31" x2="406.97" y2="327.31" gradientUnits="userSpaceOnUse"><stop offset="0" stop-color="#00dcf5"/><stop offset="0.99" stop-color="#0153e7"/></linearGradient><linearGradient id="linear-gradient-4" x1="389.8" y1="601.36" x2="599.31" y2="601.36" xlink:href="#linear-gradient-3"/><linearGradient id="linear-gradient-5" x1="4885.36" y1="1279.9" x2="5403.64" y2="974.1" gradientTransform="matrix(1, 0, 0, -1, -3346, 2254)" gradientUnits="userSpaceOnUse"><stop offset="0" stop-color="#ffd053"/><stop offset="1" stop-color="#ff8004"/></linearGradient><linearGradient id="linear-gradient-6" x1="5773.36" y1="1279.9" x2="6291.64" y2="974.1" gradientTransform="matrix(1, 0, 0, -1, -5122, 2254)" xlink:href="#linear-gradient-5"/><linearGradient id="linear-gradient-7" x1="825" y1="746.56" x2="1481" y2="746.56" gradientUnits="userSpaceOnUse"><stop offset="0" stop-color="#00cef4"/><stop offset="1" stop-color="#0161e8"/></linearGradient></defs><title>POP-UP_50</title><g class="cls-1"><g id="Layer_1" ><g id="pop-up_3" ><rect class="cls-2" x="266.5" y="309.5" width="2176" height="654" rx="327" transform="translate(2443 999) rotate(-180)"/><rect class="cls-3" width="2176" height="654" rx="327"/><path class="cls-4" d="M577.45,416.39a24.37,24.37,0,0,1,16.07,40h0a24.3,24.3,0,0,1-13.59,8.1,136.9,136.9,0,0,1-.66,273.65,24.26,24.26,0,0,1,20.07,23.93,24.44,24.44,0,0,1-21.84,24.31c101-1.26,182.53-83.58,182.53-185S678.49,417.6,577.45,416.39Z" transform="translate(-266 -274)"/><circle class="cls-5" cx="308.93" cy="327.31" r="98.04"/><path class="cls-6" d="M599.31,762.06a24.4,24.4,0,0,1-21.87,24.29,35.19,35.19,0,0,1-5,0c-101.12-1.25-182.61-83.55-182.61-185A184.92,184.92,0,0,1,572.41,416.36a35.19,35.19,0,0,1,5,0,24.39,24.39,0,0,1,2.42,48.15h-.18c-1.53-.09-3.14-.09-4.75-.09s-3.14,0-4.76.09H570a136.88,136.88,0,0,0,.63,273.61c1.44.09,2.87.09,4.31.09s2.86,0,4.3-.09A24.29,24.29,0,0,1,599.31,762.06Z" transform="translate(-266 -274)"/><path class="cls-7" d="M579.68,464.51a25.91,25.91,0,0,1-9.51,0c1.62-.09,3.14-.09,4.76-.09S578.15,464.42,579.68,464.51Z" transform="translate(-266 -274)"/><path class="cls-7" d="M579.23,738.12c-1.44.09-2.87.09-4.3.09s-2.87,0-4.31-.09a20.82,20.82,0,0,1,8.61,0Z" transform="translate(-266 -274)"/><g class="cls-8"><path class="cls-9" d="M721,601.38A146.18,146.18,0,0,1,593.52,746.32a24,24,0,0,0-14.3-8.19,136.9,136.9,0,0,0,.66-273.65,24.3,24.3,0,0,0,13.59-8.1h0A146.21,146.21,0,0,1,721,601.38Z" transform="translate(-266 -274)"/></g><text class="cls-10" transform="translate(245.64 347.68)">50%</text><rect class="cls-11" x="1461" y="1053" width="675" height="148" rx="74" transform="translate(3331 1980) rotate(-180)"/><rect class="cls-12" x="573" y="1053" width="675" height="148" rx="74" transform="translate(1555 1980) rotate(-180)"/><path class="cls-13" d="M648.24,1175.49a48.5,48.5,0,0,1,0-97" transform="translate(-266 -274)"/><path class="cls-13" d="M1537.24,1175.49a48.5,48.5,0,0,1,0-97" transform="translate(-266 -274)"/></g><path class="cls-4" d="M868.12,789.68H2093.25a43.13,43.13,0,0,0,43.12-43.12h0a43.12,43.12,0,0,0-43.12-43.12H868.12A43.12,43.12,0,0,0,825,746.56h0A43.13,43.13,0,0,0,868.12,789.68Z" transform="translate(-266 -274)"/><path class="cls-14" d="M846.57,789.68h612.86c11.91,0,21.57-19.31,21.57-43.12h0c0-23.82-9.66-43.12-21.57-43.12H846.57c-11.91,0-21.57,19.3-21.57,43.12h0C825,770.37,834.66,789.68,846.57,789.68Z" transform="translate(-266 -274)"/><text class="cls-10" transform="translate(1057.64 494.68)">50%</text><text class="cls-15" transform="translate(479.68 871.89)">PLAY AGAIN</text><text class="cls-15" transform="translate(1431.68 871.89)">CANCEL</text></g></g></svg>
