<svg id="Layer_1" data-name="Layer 1" xmlns="http://www.w3.org/2000/svg" xmlns:xlink="http://www.w3.org/1999/xlink" viewBox="0 0 607.93 719.54"><defs><style>.cls-1{fill:#ff8004;}.cls-2{fill:#ffd053;}.cls-3{fill:url(#linear-gradient);}</style><linearGradient id="linear-gradient" x1="487.59" y1="648.74" x2="485.45" y2="382.91" gradientUnits="userSpaceOnUse"><stop offset="0" stop-color="#ff7f03"/><stop offset="0.21" stop-color="#ff971b"/><stop offset="0.53" stop-color="#ffb639"/><stop offset="0.81" stop-color="#ffc84b"/><stop offset="1" stop-color="#ffcf52"/></linearGradient></defs><title>buton_home</title><path class="cls-1" d="M804.66,456.67v403H221.83v-403c0-160.28,131.13-291.42,291.41-291.42,80.11,0,153,32.8,205.79,85.63S804.66,376.56,804.66,456.67Z" transform="translate(-196.73 -140.15)"/><path class="cls-2" d="M779.56,431.56v403H196.73v-403c0-160.27,131.13-291.41,291.41-291.41,80.11,0,153,32.8,205.79,85.63S779.56,351.46,779.56,431.56Z" transform="translate(-196.73 -140.15)"/><path id="home" class="cls-3" d="M605,502.1V633.66a14.25,14.25,0,0,1-14.25,14.25H531V574.17a44,44,0,0,0-88.09,0v73.74H383.15a14.25,14.25,0,0,1-14.25-14.25V502.1a14.19,14.19,0,0,1,3.1-8.88l2.25-2.26L478.79,386.27a11.52,11.52,0,0,1,16.29,0L599.62,491l2.25,2.26A14.19,14.19,0,0,1,605,502.1Z" transform="translate(-196.73 -140.15)"/></svg>