<svg xmlns="http://www.w3.org/2000/svg" xmlns:xlink="http://www.w3.org/1999/xlink" viewBox="0 0 2176.5 927"><defs><style>.cls-1{isolation:isolate;}.cls-2{fill:#d8d6ec;}.cls-3{fill:url(#linear-gradient);}.cls-4{fill:url(#linear-gradient-2);}.cls-5{fill:url(#linear-gradient-3);}.cls-6{fill:url(#linear-gradient-4);}.cls-7{fill:none;stroke:#fff;stroke-miterlimit:10;stroke-width:5px;}.cls-8{fill:url(#linear-gradient-5);}.cls-9{fill:#5d5d5d;}.cls-10{fill:url(#linear-gradient-6);}.cls-11{mix-blend-mode:overlay;}.cls-12{fill:#231f20;}.cls-13{font-size:55.88px;}.cls-13,.cls-15{fill:#fff;font-family:Poppins-BlackItalic, Poppins;font-weight:800;font-style:italic;}.cls-14{fill:url(#linear-gradient-7);}.cls-15{font-size:55.88px;}</style><linearGradient id="linear-gradient" x1="3608.5" y1="637.5" x2="5784.5" y2="637.5" gradientTransform="matrix(1, 0, 0, -1, -3342, 1275)" gradientUnits="userSpaceOnUse"><stop offset="0" stop-color="#fff"/><stop offset="1" stop-color="#ff8004"/></linearGradient><linearGradient id="linear-gradient-2" y1="327" x2="2176" y2="327" gradientUnits="userSpaceOnUse"><stop offset="0" stop-color="#fff"/><stop offset="1" stop-color="#fff"/></linearGradient><linearGradient id="linear-gradient-3" x1="5773.36" y1="1280.9" x2="6291.64" y2="975.1" gradientTransform="matrix(1, 0, 0, -1, -5122, 2256)" gradientUnits="userSpaceOnUse"><stop offset="0" stop-color="#ffd053"/><stop offset="1" stop-color="#ff8004"/></linearGradient><linearGradient id="linear-gradient-4" x1="4885.36" y1="1280.9" x2="5403.64" y2="975.1" gradientTransform="matrix(1, 0, 0, -1, -3346, 2256)" xlink:href="#linear-gradient-3"/><linearGradient id="linear-gradient-5" x1="210.89" y1="327.19" x2="406.97" y2="327.19" gradientUnits="userSpaceOnUse"><stop offset="0" stop-color="#a7e8a8"/><stop offset="0.19" stop-color="#8ddcb1"/><stop offset="0.59" stop-color="#4bbec7"/><stop offset="0.99" stop-color="#029de0"/></linearGradient><linearGradient id="linear-gradient-6" x1="389.8" y1="521.86" x2="599.31" y2="521.86" xlink:href="#linear-gradient-5"/><linearGradient id="linear-gradient-7" x1="830" y1="743.56" x2="1160" y2="743.56" gradientUnits="userSpaceOnUse"><stop offset="0" stop-color="#88dab3"/><stop offset="1" stop-color="#08a0de"/></linearGradient></defs><title>POP-UP_25</title><g class="cls-1"><g id="Layer_1" ><path class="cls-2" d="M868.12,789.68H2093.25a43.13,43.13,0,0,0,43.12-43.12h0a43.12,43.12,0,0,0-43.12-43.12H868.12A43.12,43.12,0,0,0,825,746.56h0A43.13,43.13,0,0,0,868.12,789.68Z" transform="translate(-266 -275)"/><g id="pop-up_4" ><rect class="cls-3" x="266.5" y="310.5" width="2176" height="654" rx="327" transform="translate(2443 1000) rotate(-180)"/><rect class="cls-4" width="2176" height="654" rx="327"/><rect class="cls-5" x="573" y="1054" width="675" height="148" rx="74" transform="translate(1555 1981) rotate(-180)"/><rect class="cls-6" x="1461" y="1054" width="675" height="148" rx="74" transform="translate(3331 1981) rotate(-180)"/><path class="cls-7" d="M648.24,1176.49a48.5,48.5,0,0,1,0-97" transform="translate(-266 -275)"/><path class="cls-7" d="M1537.24,1176.49a48.5,48.5,0,0,1,0-97" transform="translate(-266 -275)"/><path class="cls-2" d="M577.45,417.23a24.42,24.42,0,0,1,16.11,40h0a24.67,24.67,0,0,1-13.65,8.14A136.89,136.89,0,1,1,438.14,606.5,24.38,24.38,0,0,1,430,620.7v0a24.4,24.4,0,0,1-40.09-16.06,184.91,184.91,0,0,0,185,182.61c102.2,0,185-82.83,185-185.13C760,500.81,678.49,418.49,577.45,417.23Z" transform="translate(-266 -275)"/><circle class="cls-8" cx="308.93" cy="327.19" r="98.04"/><path class="cls-9" d="M579.68,465.38a25.35,25.35,0,0,1-9.51,0c1.62-.09,3.14-.09,4.76-.09S578.06,465.29,579.68,465.38Z" transform="translate(-266 -275)"/><path class="cls-10" d="M599.31,441.44a24.43,24.43,0,0,1-19.45,23.94h-.18c-1.62-.09-3.14-.09-4.75-.09s-3.14,0-4.76.09H570a136.72,136.72,0,0,0-131.87,132.5c-.09,1.44-.09,2.87-.09,4.31s0,2.87.09,4.3a24.37,24.37,0,0,1-48.23-1.79,35,35,0,0,1,0-5c1.25-100.23,82.21-181.19,182.52-182.44a35.19,35.19,0,0,1,5,0A24.32,24.32,0,0,1,599.31,441.44Z" transform="translate(-266 -275)"/><g class="cls-11"><path class="cls-12" d="M721.05,602.17A146.12,146.12,0,0,1,430,620.75v0a24.38,24.38,0,0,0,8.15-14.2A136.88,136.88,0,1,0,579.87,465.37a24.67,24.67,0,0,0,13.65-8.14h0A146.18,146.18,0,0,1,721.05,602.17Z" transform="translate(-266 -275)"/></g><text class="cls-13" transform="translate(250.64 346.68)">25%</text></g><path class="cls-2" d="M873.12,786.68H2098.25a43.13,43.13,0,0,0,43.12-43.12h0a43.12,43.12,0,0,0-43.12-43.12H873.12A43.12,43.12,0,0,0,830,743.56h0A43.13,43.13,0,0,0,873.12,786.68Z" transform="translate(-266 -275)"/><path class="cls-14" d="M840.85,786.68h308.3c6,0,10.85-19.31,10.85-43.12h0c0-23.82-4.86-43.12-10.85-43.12H840.85c-6,0-10.85,19.3-10.85,43.12h0C830,767.37,834.86,786.68,840.85,786.68Z" transform="translate(-266 -275)"/><text class="cls-13" transform="translate(748.64 488.68)">25%</text><text class="cls-15" transform="translate(479.68 870.89)">PLAY AGAIN</text><text class="cls-15" transform="translate(1431.68 870.89)">CANCEL</text></g></g></svg>
