<svg id="Layer_1" data-name="Layer 1" xmlns="http://www.w3.org/2000/svg" xmlns:xlink="http://www.w3.org/1999/xlink" viewBox="0 0 2176.5 927"><defs><style>.cls-1{fill:url(#linear-gradient);}.cls-2{fill:url(#linear-gradient-2);}.cls-3{fill:url(#linear-gradient-3);}.cls-4{fill:url(#linear-gradient-4);}.cls-5{font-size:55.88px;}.cls-10,.cls-5{fill:#fff;font-family:Poppins-BlackItalic, Poppins;font-weight:800;font-style:italic;}.cls-6{fill:url(#linear-gradient-5);}.cls-7{fill:url(#linear-gradient-6);}.cls-8{fill:none;stroke:#fff;stroke-miterlimit:10;stroke-width:5px;}.cls-9{fill:url(#linear-gradient-7);}.cls-10{font-size:55.88px;}</style><linearGradient id="linear-gradient" x1="3608.5" y1="627.5" x2="5784.5" y2="627.5" gradientTransform="matrix(1, 0, 0, -1, -3342, 1255)" gradientUnits="userSpaceOnUse"><stop offset="0" stop-color="#fff"/><stop offset="1" stop-color="#ff8004"/></linearGradient><linearGradient id="linear-gradient-2" y1="327" x2="2176" y2="327" gradientUnits="userSpaceOnUse"><stop offset="0" stop-color="#fff"/><stop offset="1" stop-color="#fff"/></linearGradient><linearGradient id="linear-gradient-3" x1="3731.8" y1="591.87" x2="4101.97" y2="591.87" gradientTransform="matrix(-1, 0, 0, 1, 4491.77, 0)" gradientUnits="userSpaceOnUse"><stop offset="0" stop-color="#b981fb"/><stop offset="0.99" stop-color="#7f53f0"/></linearGradient><linearGradient id="linear-gradient-4" x1="3818.89" y1="591.8" x2="4014.98" y2="591.8" gradientTransform="matrix(-1, 0, 0, 1, 4225.77, -265)" xlink:href="#linear-gradient-3"/><linearGradient id="linear-gradient-5" x1="5771.36" y1="1270.9" x2="6289.64" y2="965.1" gradientTransform="matrix(1, 0, 0, -1, -5118, 2236)" gradientUnits="userSpaceOnUse"><stop offset="0" stop-color="#ffd053"/><stop offset="1" stop-color="#ff8004"/></linearGradient><linearGradient id="linear-gradient-6" x1="4883.36" y1="1270.9" x2="5401.64" y2="965.1" gradientTransform="matrix(1, 0, 0, -1, -3342, 2236)" xlink:href="#linear-gradient-5"/><linearGradient id="linear-gradient-7" x1="825" y1="732.56" x2="2136.37" y2="732.56" gradientUnits="userSpaceOnUse"><stop offset="0" stop-color="#8054f0"/><stop offset="1" stop-color="#b77ffb"/></linearGradient></defs><title>POP-UP_100</title><g id="pop-up_1" ><rect class="cls-1" x="266.5" y="300.5" width="2176" height="654" rx="327" transform="translate(2443 990) rotate(-180)"/><rect class="cls-2" width="2176" height="654" rx="327"/><path class="cls-3" d="M389.8,591.83c0,102.29,82.83,185.13,185,185.13A185,185,0,0,0,707.44,462.8c-.53-.63-1.07-1.25-1.7-1.88s-1.25-1.17-1.88-1.7a183.94,183.94,0,0,0-126.5-52.36,23.4,23.4,0,0,0-2.51-.09,22.57,22.57,0,0,0-2.51.09l-.19,0C471.19,408.18,389.8,490.47,389.8,591.83Zm48.14,0A137,137,0,0,1,569.84,455l.08,0h.18c1.61-.09,3.14-.09,4.75-.09s3.14,0,4.75.09h.18a136.27,136.27,0,0,1,88.4,36.58.28.28,0,0,1,.09.18q3.5,3.23,6.72,6.72c.09,0,.09,0,.18.09l0,0a136.93,136.93,0,1,1-237.27,93.23Z" transform="translate(-266 -265)"/><circle class="cls-4" cx="308.84" cy="326.8" r="98.04"/><text class="cls-5" transform="translate(235.64 346.68)">100%</text><rect class="cls-6" x="575" y="1044" width="675" height="148" rx="74" transform="translate(1559 1971) rotate(-180)"/><rect class="cls-7" x="1463" y="1044" width="675" height="148" rx="74" transform="translate(3335 1971) rotate(-180)"/><path class="cls-8" d="M648.24,1166.49a48.5,48.5,0,0,1,0-97" transform="translate(-266 -265)"/><path class="cls-8" d="M1537.24,1166.49a48.5,48.5,0,0,1,0-97" transform="translate(-266 -265)"/><path class="cls-9" d="M868.12,775.68H2093.25a43.13,43.13,0,0,0,43.12-43.12h0a43.12,43.12,0,0,0-43.12-43.12H868.12A43.12,43.12,0,0,0,825,732.56h0A43.13,43.13,0,0,0,868.12,775.68Z" transform="translate(-266 -265)"/><text class="cls-5" transform="translate(1678.64 489.68)">100%</text></g><text class="cls-10" transform="translate(479.68 875.89)">PLAY AGAIN</text><text class="cls-10" transform="translate(1431.68 875.89)">CANCEL</text></svg>
